PathFileType	4	(X/Y/Z)	/Users/rkoike/Documents/python/sports2d/webcam_20251024_144952/webcam_20251024_144952_px_person01.trc
DataRate	CameraRate	NumFrames	NumMarkers	Units	OrigDataRate	OrigDataStartFrame	OrigNumFrames
30	30	15	22	m	30	360	962
Frame#	Time	Hip			RHip			RKnee			RAnkle			RBigToe			RSmallToe			RHeel			LHip			LKnee			LAnkle			LBigToe			LSmallToe			LHeel			Neck			Head			Nose			RShoulder			RElbow			RWrist			LShoulder			LElbow			LWrist			
		X1	Y1	Z1	X2	Y2	Z2	X3	Y3	Z3	X4	Y4	Z4	X5	Y5	Z5	X6	Y6	Z6	X7	Y7	Z7	X8	Y8	Z8	X9	Y9	Z9	X10	Y10	Z10	X11	Y11	Z11	X12	Y12	Z12	X13	Y13	Z13	X14	Y14	Z14	X15	Y15	Z15	X16	Y16	Z16	X17	Y17	Z17	X18	Y18	Z18	X19	Y19	Z19	X20	Y20	Z20	X21	Y21	Z21	X22	Y22	Z22
360	12.012486992715923	545.2946228030577	723.6056783308869	0.0	445.9983629093476	718.3241195131725	0.0	134.94208224345672	742.8311244281203	0.0	286.5020025130532	685.4882549405165	0.0			0.0			0.0			0.0	664.3563425534203	719.175329256971	0.0	958.0159572923181	716.0015148011147	0.0	961.7405289544	639.6848042673536	0.0			0.0	829.3565238830115	333.9305550307034	0.0			0.0	573.4082517665124	368.99206808033557	0.0	517.510753616454	107.12479376266178	0.0	476.544950267665	248.69862035515933	0.0	400.0158728577699	455.0893288022098	0.0	298.2951713286115	686.4416269171084	0.0	276.4511510035468	714.4385506471941	0.0	780.5952120049833	417.63048832457923	0.0	810.8337232661656	688.9666990446394	0.0	495.52590679784464	492.61985854795523	0.0
361	12.045855012140132	549.0074171397188	722.0064577624307	0.0	444.05329042717443	716.8753089308849	0.0	135.1398735484442	742.7698098837596	0.0	286.5020025130532	685.4882549405165	0.0			0.0			0.0			0.0	675.0807547699684	722.8033947922239	0.0	958.0165461646191	716.001561848645	0.0	961.7405289544	639.6848042673536	0.0			0.0	829.3565238830115	333.9305550307034	0.0			0.0	574.6689336294504	370.3296113087756	0.0	517.0216728710467	108.71596861552628	0.0	479.2403368517514	248.12463187591652	0.0	396.3336496275097	452.7618527492401	0.0	292.11181985165905	688.1474173576275	0.0	279.64822317082945	707.6931504589111	0.0	779.6319465786604	422.4676728235224	0.0	841.4138039213589	694.8477021695523	0.0	519.966210388146	556.9717671676998	0.0
362	12.079223031564343	553.1463064220186	728.0331002006063	0.0	441.41347934315235	722.9238486721871	0.0	134.8087337360521	742.8054014949224	0.0	286.5020025130532	685.4882549405165	0.0			0.0			0.0			0.0	681.0381710855825	733.7680633056947	0.0	958.0150453814406	716.0016577480762	0.0	961.7405289544	639.6848042673536	0.0			0.0	829.3565238830115	333.9305550307034	0.0			0.0	574.5357206508714	369.09117378618066	0.0	515.4814582927564	107.77432240200892	0.0	481.05117852252334	245.07560488373122	0.0	390.53209708799307	452.9689182984628	0.0	282.7489953499112	692.1105301459083	0.0	282.7789017236313	705.8665825115539	0.0	780.5328461320457	428.11212325223534	0.0	864.8667166142392	697.9990465554603	0.0	581.7628923782424	622.6035673152878	0.0
363	12.112591050988554	555.9999230158068	723.6945330695419	0.0	439.1827650394843	718.273394869366	0.0	132.74647000475088	743.0821595137172	0.0	286.5020025130532	685.4882549405165	0.0			0.0			0.0			0.0	682.9542172649568	728.2387614660284	0.0	958.0092059482445	716.0015984573027	0.0	961.7405289544	639.6848042673536	0.0			0.0	829.3565238830115	333.9305550307034	0.0			0.0	570.7253558330417	369.04840368411556	0.0	514.5828078837785	106.48743540429058	0.0	479.7483142708216	243.10824641763926	0.0	382.81311329416457	455.03303770664803	0.0	270.6111099261392	695.4539380354628	0.0	284.07495928674433	706.2727834165188	0.0	780.1282459801017	436.15472524116274	0.0	877.9775801209562	698.2131583255978	0.0	679.7981814112935	673.5740498194402	0.0
364	12.145959070412765	554.0556758043022	711.1549629584729	0.0	434.12804340325835	704.4178922799373	0.0	130.5191130141866	743.4161912225993	0.0	286.5020025130532	685.4882549405165	0.0			0.0			0.0			0.0	684.8169649637404	708.7467331989077	0.0	958.0058505114058	716.0009968253214	0.0	961.7405289544	639.6848042673536	0.0			0.0	829.3565238830115	333.9305550307034	0.0			0.0	563.9152206693108	370.9946431222138	0.0	512.9471186499319	105.77592723908094	0.0	475.34048114825526	242.6324110126963	0.0	372.6349366439801	457.02337898396706	0.0	257.10718610542165	696.8644580884468	0.0	277.7942006503967	706.702171971049	0.0	778.2718363758562	445.8769926764272	0.0	880.682219070744	695.7374525472123	0.0	781.4007318128546	701.089597014069	0.0
365	12.179327089836976	547.4285311234026	704.8746391238964	0.0	424.6209122586326	696.6977800453438	0.0	136.92128383514085	742.6510664509668	0.0	286.5020025130532	685.4882549405165	0.0			0.0			0.0			0.0	684.3704803340357	696.7712463548203	0.0	958.0293394713005	716.000164263355	0.0	961.7405289544	639.6848042673536	0.0			0.0	829.3565238830115	333.9305550307034	0.0			0.0	555.1784616586548	372.3444202488694	0.0	508.2038445282088	104.16289368375972	0.0	470.57853784399197	242.10703015412884	0.0	359.88524106899337	457.4680676267558	0.0	244.94395080710675	697.1399334156285	0.0	257.1458063015505	709.3152070161623	0.0	776.0606600688823	454.1579244653575	0.0	874.7401407593774	694.4851868990285	0.0	850.279428415411	709.8934404596642	0.0
366	12.212695109261187	539.5773122652745	706.5720790428051	0.0	413.7333897231746	698.3615004535465	0.0	160.41019733534026	739.5092139581075	0.0	286.5020025130532	685.4882549405165	0.0			0.0			0.0			0.0	679.2956838308945	698.353302617369	0.0	958.0908016002687	716.0016655603528	0.0	961.7405289544	639.6848042673536	0.0			0.0	829.3565238830115	333.9305550307034	0.0			0.0	544.5000195929372	371.64621716522646	0.0	501.0224320745905	101.30513413973048	0.0	467.7689448157879	241.32964316755135	0.0	346.15923796210166	457.32641754258833	0.0	235.7395372047636	698.3830781465283	0.0	228.543808994349	714.5890075294072	0.0	772.0185721730775	458.536399036601	0.0	863.0993834395099	697.9005128842372	0.0	873.2266929320248	710.7475496985702	0.0
367	12.246063128685398	532.2637160820606	708.2729833459531	0.0	403.1671710824819	700.1926503857817	0.0	190.361336081612	735.0542852457879	0.0	286.5020025130532	685.4882549405165	0.0			0.0			0.0			0.0	672.8976655181116	702.76377681847	0.0	958.0868334786089	716.0087504479221	0.0	961.7405289544	639.6848042673536	0.0			0.0	829.3565238830115	333.9305550307034	0.0			0.0	532.4327747954026	371.4095646694684	0.0	492.92481544859146	99.3889395333601	0.0	464.46846213373686	240.6755534748682	0.0	332.31665036228395	459.5713114249182	0.0	228.00668669066368	702.3207061824462	0.0	212.48535099501578	715.927453485805	0.0	763.359149245073	460.0866250542882	0.0	847.8939183638937	704.1116485513829	0.0	857.4531758587328	709.4728713658748	0.0
368	12.279431148109609	524.8122620457495	707.6105301298294	0.0	391.76682942887913	697.3777661007833	0.0	203.8084352283022	732.1268283240785	0.0	286.5020025130532	685.4882549405165	0.0			0.0			0.0			0.0	666.4757293612884	703.0773676699899	0.0	957.7654677531289	716.014453580268	0.0	961.7405289544	639.6848042673536	0.0			0.0	829.3565238830115	333.9305550307034	0.0			0.0	519.9128481158282	373.7930630900606	0.0	482.7860176504258	99.25230973627059	0.0	456.2525142955022	239.60916283832077	0.0	317.18442458495946	464.7468086568227	0.0	219.77632052485646	708.8184986565317	0.0	217.15252039270413	711.0381075926036	0.0	750.2258545554517	461.5184227957918	0.0	830.2670050429165	709.1943244103927	0.0	825.4058528521426	708.6287751499714	0.0
369	12.31279916753382	517.1920026245423	707.2960684179362	0.0	381.11714072143184	693.0061242883098	0.0	195.12491242762593	731.65888063764	0.0	286.5020025130532	685.4882549405165	0.0			0.0			0.0			0.0	657.571619519008	700.3248754579232	0.0	957.1792772452749	715.9890346597766	0.0	961.7405289544	639.6848042673536	0.0			0.0	829.3565238830115	333.9305550307034	0.0			0.0	506.74090395008034	376.6585804628714	0.0	469.03622439876233	98.75188447656681	0.0	442.4044656997079	238.44995468898247	0.0	300.7806602785912	469.1459576172776	0.0	211.10317329041888	715.4111814521438	0.0	226.28910171628308	709.4367994382557	0.0	736.2232766976521	463.32718485359146	0.0	813.1544241353637	711.888993912977	0.0	804.4823864149603	710.846850890828	0.0
370	12.34616718695803	508.92376968644857	706.7998011848653	0.0	373.7272885065233	689.0287278493222	0.0	177.34630038471445	732.250786445219	0.0	286.5020025130532	685.4882549405165	0.0			0.0			0.0			0.0	647.3167465828906	695.4926192592434	0.0	957.7142306617494	715.9119411560664	0.0	961.7405289544	639.6848042673536	0.0			0.0	829.3565238830115	333.9305550307034	0.0			0.0	492.0971219202575	378.27786248579923	0.0	452.2224607857074	96.3351425878435	0.0	424.68887859723736	238.62787968326828	0.0	285.1524386851424	470.61166632745454	0.0	201.8663612063069	718.2527993355534	0.0	223.6172545940312	716.2733806798813	0.0	723.6556804148257	464.37471822097933	0.0	799.5322653637468	712.4642001243013	0.0	799.879297509586	714.4190526189795	0.0
371	12.379535206382242	496.7176465016815	704.117020983389	0.0	365.2972168057004	685.5715802701418	0.0	160.46781722678043	732.7990701113921	0.0	286.5020025130532	685.4882549405165	0.0			0.0			0.0			0.0	637.8986533802893	690.1173766858391	0.0	961.7173335293246	715.8962670321473	0.0	961.7405289544	639.6848042673536	0.0			0.0	829.3565238830115	333.9305550307034	0.0			0.0	475.30455538179825	379.93087110259546	0.0	433.79327212502136	92.7977522946379	0.0	405.4093651845805	239.14259629015842	0.0	269.8701719017148	471.9435541148466	0.0	190.35203549612015	716.0023690028952	0.0	211.04103430150073	722.2456716354565	0.0	711.060030735045	464.10077639492886	0.0	787.8612913911415	711.3524250234916	0.0	793.1988982004481	715.2270113498583	0.0
372	12.412903225806453	480.7494786723889	702.4322530824994	0.0	350.1723666693703	687.4682563220312	0.0	145.26038192892273	733.4111478161383	0.0	286.5020025130532	685.4882549405165	0.0			0.0			0.0			0.0	627.4957319547844	690.8648438931262	0.0	966.5397386092864	716.2603924888795	0.0	961.7405289544	639.6848042673536	0.0			0.0	829.3565238830115	333.9305550307034	0.0			0.0	456.8490336569861	380.3302130667651	0.0	415.0561857288197	89.03697773421098	0.0	387.25245920143635	237.03377866607673	0.0	251.87504433221872	474.88909379527223	0.0	176.78572984909727	712.0940252903849	0.0	198.27471632717618	719.9521394079221	0.0	697.2249700193319	462.3865239060437	0.0	775.0778484408916	709.6086346708221	0.0	775.8254180697248	714.5827767683949	0.0
373	12.446271245230664	467.8261695724769	708.1034748079759	0.0	333.2235360955659	699.7195681246899	0.0	130.02936579410687	734.3611232665573	0.0	286.5020025130532	685.4882549405165	0.0			0.0			0.0			0.0	614.8875334549559	702.4488039477819	0.0	955.1969707806629	717.0275855140694	0.0	961.7405289544	639.6848042673536	0.0			0.0	829.3565238830115	333.9305550307034	0.0			0.0	439.0363452476363	375.3232337566366	0.0	397.2229353303343	84.7196420689516	0.0	371.27633437032523	231.67994111408257	0.0	230.3923255014673	475.99939804834816	0.0	164.34209890618266	710.5248279775572	0.0	188.97279455912695	714.85454656549	0.0	683.3752172566535	459.3330837880923	0.0	762.019786826137	707.7379541641902	0.0	758.5959536035186	716.4625480980559	0.0
374	12.479639264654875	458.338942240598	719.2668714511101	0.0	321.6581349743911	715.259191434752	0.0	115.84520993707413	734.53255670559	0.0	286.5020025130532	685.4882549405165	0.0			0.0			0.0			0.0	600.7418106059579	715.5068346772038	0.0	909.1645650797992	716.6158380137384	0.0	961.7405289544	639.6848042673536	0.0			0.0	829.3565238830115	333.9305550307034	0.0			0.0	423.39551598075263	367.44326776828467	0.0	380.70896595711724	80.02880496078046	0.0	356.483296394419	225.73581544370825	0.0	208.18321198931358	472.8820030583	0.0	153.48707121423274	711.1564046515705	0.0	178.5742905863859	712.5556045616465	0.0	670.2939521495664	456.57824530471567	0.0	750.7606218162995	705.6460465344213	0.0	750.510333839645	718.432975969805	0.0
